<svg xmlns="http://www.w3.org/2000/svg" version="1.1" xmlns:xlink="http://www.w3.org/1999/xlink" xmlns:svgjs="http://svgjs.dev/svgjs" width="1000" height="419" viewBox="0 0 1000 419"><g transform="matrix(1,0,0,1,-1.2411865130174533,-0.8082156626506105)"><svg viewBox="0 0 198 83" data-background-color="#ffffff" preserveAspectRatio="xMidYMid meet" height="419" width="1000" xmlns="http://www.w3.org/2000/svg" xmlns:xlink="http://www.w3.org/1999/xlink"><g id="tight-bounds" transform="matrix(1,0,0,1,0.24575492957745837,0.1600999999999999)"><svg viewBox="0 0 197.50849014084505 82.6798" height="82.6798" width="197.50849014084505"><g><svg viewBox="0 0 197.50849014084505 82.6798" height="82.6798" width="197.50849014084505"><g><svg viewBox="0 0 197.50849014084505 82.6798" height="82.6798" width="197.50849014084505"><g id="textblocktransform"><svg viewBox="0 0 197.50849014084505 82.6798" height="82.6798" width="197.50849014084505" id="textblock"><g><svg viewBox="0 0 197.50849014084505 82.6798" height="82.6798" width="197.50849014084505"><g><svg><g></g><g></g></svg></g><g><svg><g></g><g><svg></svg></g></svg></g><g id="text-0"><svg viewBox="0 0 197.50849014084505 82.6798" height="82.6798" width="197.50849014084505"><g><svg xmlns:x="http://ns.adobe.com/Extensibility/1.0/" xmlns:i="http://ns.adobe.com/AdobeIllustrator/10.0/" xmlns:graph="http://ns.adobe.com/Graphs/1.0/" xmlns="http://www.w3.org/2000/svg" xmlns:xlink="http://www.w3.org/1999/xlink" version="1.1" x="0" y="0" viewBox="1.7 7.4 96.6 85.19999999999999" enable-background="new 0 0 100 100" xml:space="preserve" height="82.6798" width="93.74259014084507" class="icon-z$-0" data-fill-palette-color="accent" id="z$-0"><path d="M98.3 50c0 23.5-21.7 42.6-48.3 42.6-4.4 0-8.8-0.5-13-1.6-1.3-0.3-2.2-1.7-1.8-3 0.3-1.3 1.7-2.2 3-1.8C42 87.2 46 87.6 50 87.6c23.9 0 43.3-16.9 43.3-37.6S73.9 12.4 50 12.4 6.7 29.2 6.7 50c0 8.6 3.3 16.8 9.5 23.5 0.6 0.7 0.8 1.7 0.5 2.6-1.3 3.4-3.2 6.3-5.6 8.5 3.5 0.1 8.3-0.4 12.7-3.1 1.2-0.7 2.7-0.3 3.4 0.9 0.7 1.2 0.3 2.7-0.9 3.4-7.3 4.4-15.1 4.1-19.1 3.5-1.6-0.2-2.8-1.3-3.1-2.9-0.3-1.5 0.3-3.1 1.6-4 2.5-1.6 4.4-3.9 5.7-6.8C5.2 68.3 1.7 59.3 1.7 50 1.7 26.5 23.4 7.4 50 7.4S98.3 26.5 98.3 50zM50 27.1c-1.4 0-2.5 1.1-2.5 2.5v4.1h-0.4c-4.9 0-8.9 4.2-8.9 9.4 0 5.2 4 9.4 8.9 9.4h5.9c2.2 0 3.9 2 3.9 4.4s-1.8 4.4-3.9 4.4H42.4c-1.4 0-2.5 1.1-2.5 2.5s1.1 2.5 2.5 2.5h5.1v4.2c0 1.4 1.1 2.5 2.5 2.5s2.5-1.1 2.5-2.5v-4.2H53c0 0 0 0 0.1 0 4.9-0.1 8.8-4.3 8.8-9.4 0-5.2-4-9.4-8.9-9.4h-5.9c-2.2 0-3.9-2-3.9-4.4s1.8-4.4 3.9-4.4h10.4c1.4 0 2.5-1.1 2.5-2.5s-1.1-2.5-2.5-2.5h-4.9v-4.1C52.5 28.2 51.4 27.1 50 27.1z" fill="#f9e17e" data-fill-palette-color="accent"></path></svg><g></g></g><g transform="matrix(1,0,0,1,103.50269014084506,0)"><svg width="94.0058" viewBox="-0.65 -25.25 29.049999999999997 25.55" height="82.6798" data-palette-color="#ebebeb"><path d="M16.25-22.7L16.25-22.7 16.25-22.35 16.8-25 24-25 20.4-8Q20.3-7.55 20.25-7.18 20.2-6.8 20.2-6.4L20.2-6.4Q20.2-5.3 20.7-4.78 21.2-4.25 22.25-4.25L22.25-4.25Q23.55-4.25 24.6-5.48 25.65-6.7 26.3-8.95L26.3-8.95 28.4-8.95Q26.8-4.35 24.25-2.02 21.7 0.3 18.35 0.3L18.35 0.3Q16.2 0.3 14.93-0.9 13.65-2.1 13.45-4.3L13.45-4.3Q11.9-2 10.03-0.85 8.15 0.3 6 0.3L6 0.3Q2.9 0.3 1.13-1.8-0.65-3.9-0.65-7.75L-0.65-7.75Q-0.65-10.55 0.2-13.6 1.05-16.65 2.55-19.15L2.55-19.15Q4.4-22.1 6.85-23.68 9.3-25.25 12.2-25.25L12.2-25.25Q14.15-25.25 15.2-24.58 16.25-23.9 16.25-22.7ZM13.4-8.95L15.8-20.25Q15.8-21 15.25-21.58 14.7-22.15 13.75-22.15L13.75-22.15Q11-22.15 8.88-17.55 6.75-12.95 6.75-8.45L6.75-8.45Q6.75-6.5 7.3-5.53 7.85-4.55 9.25-4.55L9.25-4.55Q10.55-4.55 11.78-5.8 13-7.05 13.4-8.95L13.4-8.95Z" opacity="1" transform="matrix(1,0,0,1,0,0)" fill="#ebebeb" class="wordmark-text-0" data-fill-palette-color="primary"></path></svg></g></svg></g></svg></g></svg></g></svg></g></svg></g><defs></defs></svg><rect width="197.50849014084505" height="82.6798" fill="none" stroke="none" visibility="hidden"></rect></g></svg></g></svg>